<?xml version="1.0" standalone="no"?>
<!DOCTYPE svg PUBLIC "-//W3C//DTD SVG 20010904//EN"
 "http://www.w3.org/TR/2001/REC-SVG-20010904/DTD/svg10.dtd">
<svg version="1.0" xmlns="http://www.w3.org/2000/svg"
 width="700.000000pt" height="700.000000pt" viewBox="0 0 700.000000 700.000000"
 preserveAspectRatio="xMidYMid meet">
<metadata>
Created by potrace 1.11, written by Peter Selinger 2001-2013
</metadata>
<g transform="translate(0.000000,700.000000) scale(0.100000,-0.100000)"
fill="#000000" stroke="none">
<path d="M0 3500 l0 -3500 3500 0 3500 0 0 3500 0 3500 -3500 0 -3500 0 0
-3500z m3840 2851 c266 -54 467 -168 696 -396 224 -223 355 -471 409 -779 25
-140 16 -392 -20 -566 -94 -450 -307 -973 -673 -1650 -270 -500 -658 -1149
-719 -1203 -21 -18 -22 -17 -81 65 -33 46 -129 189 -214 318 -665 1012 -1024
1792 -1145 2485 -25 146 -25 479 1 595 41 191 124 386 228 538 73 107 282 314
394 390 200 135 369 196 624 226 90 11 408 -4 500 -23z m-1453 -2946 c23 -16
57 -67 67 -102 10 -31 -37 -53 -246 -113 -564 -161 -925 -353 -1119 -597 -156
-196 -186 -389 -90 -588 189 -389 835 -706 1682 -824 351 -49 871 -67 1210
-41 910 70 1616 330 1941 714 111 132 158 243 158 375 -1 281 -212 518 -665
744 -184 93 -346 152 -629 231 -70 20 -141 43 -158 52 l-29 15 23 40 c34 61
92 109 131 109 43 0 306 -54 443 -91 583 -155 1092 -418 1358 -700 484 -513
265 -1103 -565 -1520 -686 -344 -1781 -534 -2759 -479 -1018 58 -1934 330
-2429 724 -160 127 -302 294 -368 433 -42 87 -56 205 -43 366 10 123 22 171
60 248 56 109 221 292 365 401 328 249 901 485 1425 587 58 11 114 22 125 24
44 10 92 6 112 -8z"/>
<path d="M3358 5550 c-83 -14 -144 -40 -216 -90 -120 -84 -206 -207 -254 -360
-33 -108 -33 -293 1 -400 44 -144 139 -263 282 -357 112 -73 198 -98 329 -97
206 3 340 61 496 218 134 135 173 229 174 416 0 310 -173 570 -441 660 -47 16
-83 20 -191 19 -73 -1 -154 -5 -180 -9z"/>
</g>
</svg>
