<!DOCTYPE svg PUBLIC "-//W3C//DTD SVG 20010904//EN" "http://www.w3.org/TR/2001/REC-SVG-20010904/DTD/svg10.dtd">
<svg version="1.0" xmlns="http://www.w3.org/2000/svg" width="225px" height="225px" viewBox="0 0 2250 2250" preserveAspectRatio="xMidYMid meet">
<g id="layer101" fill="#253567" stroke="none">
<path d="M0 1125 l0 -1125 1125 0 1125 0 0 1125 0 1125 -1125 0 -1125 0 0 -1125z"/>
</g>
<g id="layer102" fill="#8cd8bf" stroke="none">
<path d="M860 2034 c-357 -45 -622 -162 -728 -321 -34 -52 -37 -62 -37 -127 1 -80 14 -113 73 -178 96 -106 311 -207 531 -249 59 -11 65 -11 77 6 8 10 14 24 14 29 0 6 -42 21 -93 34 -50 12 -132 42 -182 67 -194 94 -261 225 -176 342 229 316 1214 341 1517 38 74 -74 90 -145 49 -225 -43 -83 -200 -178 -367 -222 -49 -13 -88 -26 -88 -29 0 -4 8 -17 18 -30 18 -21 21 -22 82 -10 122 24 236 62 338 113 364 179 362 452 -5 628 -265 126 -668 180 -1023 134z"/>
</g>
<g id="layer103" fill="#fefefe" stroke="none">
<path d="M1043 1565 c-284 -427 -414 -778 -369 -993 20 -98 67 -181 138 -248 98 -90 185 -124 318 -124 134 0 220 34 319 126 74 68 124 162 141 264 21 127 -24 300 -144 555 -76 160 -299 545 -316 545 -3 0 -42 -56 -87 -125z m145 -687 c61 -15 138 -89 148 -142 20 -111 -20 -208 -106 -254 -38 -20 -56 -23 -112 -20 -55 3 -75 9 -110 33 -56 40 -89 106 -89 178 0 69 21 117 73 162 59 50 118 63 196 43z"/>
</g>


</svg>