<?xml version="1.0" standalone="no"?>
<!DOCTYPE svg PUBLIC "-//W3C//DTD SVG 20010904//EN"
 "http://www.w3.org/TR/2001/REC-SVG-20010904/DTD/svg10.dtd">
<svg version="1.0" xmlns="http://www.w3.org/2000/svg"
 width="1280.000000pt" height="1280.000000pt" viewBox="0 0 1280.000000 1280.000000"
 preserveAspectRatio="xMidYMid meet">
<metadata>
Created by potrace 1.15, written by Peter Selinger 2001-2017
</metadata>
<g transform="translate(0.000000,1280.000000) scale(0.100000,-0.100000)"
fill="#000000" stroke="none">
<path d="M6137 11581 c-65 -4 -92 -10 -100 -22 -10 -14 -14 -14 -25 -3 -17 18
-46 17 -226 -5 -116 -15 -153 -23 -163 -36 -10 -15 -15 -16 -27 -5 -28 22
-359 -43 -383 -76 -10 -14 -15 -15 -27 -5 -12 10 -31 9 -93 -8 -195 -51 -267
-76 -278 -97 -8 -17 -14 -19 -27 -10 -19 12 -84 -7 -253 -72 -64 -25 -104 -46
-110 -60 -8 -14 -15 -18 -26 -12 -10 6 -51 -6 -125 -39 -153 -66 -217 -102
-230 -129 -8 -15 -14 -20 -19 -12 -10 17 -37 5 -193 -83 -104 -59 -144 -88
-148 -104 -5 -17 -11 -22 -28 -18 -15 4 -50 -13 -118 -59 -166 -110 -210 -146
-205 -165 3 -13 -1 -16 -22 -14 -36 5 -290 -197 -298 -238 -4 -20 -10 -25 -23
-22 -13 3 -49 -23 -117 -85 -124 -113 -174 -168 -167 -185 3 -10 -5 -16 -23
-20 -21 -4 -60 -41 -141 -132 -107 -120 -117 -134 -113 -162 1 -7 -7 -13 -18
-13 -14 0 -45 -30 -94 -92 -122 -156 -150 -197 -144 -218 4 -15 0 -20 -13 -20
-21 0 -35 -18 -139 -180 -44 -69 -74 -126 -74 -142 0 -16 -7 -28 -17 -31 -18
-5 -106 -152 -161 -270 -25 -55 -29 -70 -19 -82 10 -12 10 -15 -2 -15 -25 0
-43 -29 -103 -165 -36 -82 -58 -145 -59 -170 -1 -27 -8 -46 -23 -60 -29 -26
-126 -308 -120 -350 3 -19 -2 -34 -13 -45 -17 -15 -43 -99 -80 -264 -19 -83
-19 -90 -4 -107 16 -17 16 -19 1 -19 -26 0 -33 -24 -63 -203 -26 -154 -26
-169 -12 -184 15 -15 15 -17 -2 -32 -21 -17 -32 -88 -45 -283 -6 -85 -5 -99
10 -104 14 -6 14 -8 -2 -26 -16 -17 -18 -44 -21 -193 -3 -163 -2 -175 16 -193
18 -18 18 -21 5 -26 -28 -11 -2 -378 28 -396 10 -7 10 -11 0 -24 -22 -26 34
-372 63 -388 13 -7 13 -12 4 -28 -9 -14 -6 -43 16 -142 45 -199 58 -238 85
-238 12 0 12 -3 3 -12 -7 -7 -12 -20 -12 -31 0 -37 102 -329 121 -345 11 -10
16 -24 13 -36 -5 -21 33 -122 100 -269 23 -52 42 -81 56 -84 15 -4 17 -9 10
-23 -8 -15 5 -49 59 -157 73 -145 104 -193 125 -193 9 0 12 -9 9 -24 -8 -41
174 -326 207 -326 16 0 19 -5 15 -22 -4 -17 10 -44 52 -104 107 -148 163 -214
182 -214 14 0 18 -5 14 -19 -8 -30 223 -291 258 -291 13 0 19 -7 19 -21 0 -41
255 -284 285 -273 10 4 15 0 15 -13 0 -23 52 -74 180 -177 53 -43 104 -76 116
-76 14 0 24 -8 28 -22 10 -36 280 -221 313 -215 16 3 23 -2 27 -19 4 -15 36
-40 98 -77 177 -105 229 -130 240 -119 8 8 14 5 22 -11 12 -24 78 -62 234
-134 86 -39 107 -45 122 -35 16 10 19 8 22 -11 2 -18 28 -31 148 -79 164 -65
204 -75 224 -59 11 9 15 7 19 -9 6 -24 21 -30 205 -83 118 -34 146 -39 162
-29 16 10 21 9 30 -7 16 -30 360 -105 382 -83 7 7 19 5 37 -8 18 -13 67 -23
161 -34 178 -22 210 -22 220 -5 8 12 11 11 22 -4 11 -14 39 -19 158 -27 195
-13 207 -13 227 8 17 16 19 16 37 -2 17 -17 30 -18 185 -12 136 6 170 10 191
25 21 15 27 16 38 5 16 -18 18 -18 208 6 131 16 162 23 175 39 14 17 18 18 30
5 12 -12 30 -11 124 5 175 31 238 48 257 71 10 12 19 16 23 10 11 -18 57 -11
210 34 98 29 155 51 165 64 12 14 21 17 32 11 29 -16 346 104 363 138 8 15 14
18 26 10 12 -8 49 5 150 52 174 80 199 95 199 123 0 17 3 19 12 10 20 -20 36
-14 167 60 147 83 191 114 191 133 0 9 6 12 15 8 17 -6 96 39 210 121 93 66
115 86 115 107 0 12 6 16 20 12 15 -4 47 15 113 65 140 107 199 165 191 187
-6 14 -3 16 14 11 16 -6 38 8 99 62 133 118 195 189 188 213 -5 15 -4 19 4 15
23 -15 51 8 148 117 119 134 136 158 127 182 -5 12 -4 16 3 12 21 -13 42 5
121 106 112 144 135 182 127 206 -5 16 -2 21 13 21 25 0 46 25 131 158 84 132
96 159 80 178 -9 11 -7 14 10 14 26 0 65 59 141 209 32 64 50 113 47 127 -3
15 2 25 17 32 14 6 39 51 73 129 82 187 90 210 75 233 -10 17 -10 20 7 20 24
0 36 27 96 209 36 109 45 148 37 161 -7 12 -6 19 7 27 31 19 112 343 93 373
-8 13 -6 21 8 32 18 16 37 102 61 273 10 69 10 91 0 107 -10 16 -10 22 3 31
18 13 30 96 41 274 7 100 6 113 -9 119 -15 6 -15 7 1 19 16 12 18 34 21 193 3
156 1 181 -13 196 -14 13 -15 19 -5 31 24 29 -5 369 -32 389 -13 10 -14 15 -3
30 14 19 14 21 -16 216 -22 141 -31 170 -55 170 -16 0 -16 2 1 20 17 19 17 24
-9 137 -41 177 -56 223 -76 240 -14 12 -16 20 -8 32 15 25 -97 362 -123 368
-14 4 -17 11 -13 32 4 19 -8 62 -40 139 -77 188 -95 219 -129 213 -4 -1 -2 8
5 19 11 17 5 36 -50 145 -81 162 -108 205 -131 205 -14 0 -17 6 -14 24 6 29 1
39 -100 199 -55 86 -88 129 -103 133 -15 4 -21 11 -17 21 12 31 -202 313 -237
313 -13 0 -18 5 -14 15 8 20 -7 42 -121 170 -109 122 -123 135 -142 128 -8 -3
-13 3 -13 19 0 38 -258 285 -286 274 -9 -3 -14 1 -14 13 0 20 -89 103 -213
200 -50 39 -74 52 -91 49 -17 -4 -23 -1 -19 9 8 20 -10 36 -116 111 -159 111
-182 124 -207 118 -19 -5 -24 -2 -24 13 0 24 -24 41 -181 132 -97 56 -129 69
-151 65 -23 -5 -28 -2 -28 15 0 17 -30 35 -155 95 -103 50 -165 74 -183 72
-18 -2 -30 3 -37 16 -10 18 -104 60 -263 116 -64 23 -88 28 -103 20 -13 -7
-19 -7 -19 -1 0 20 -48 41 -201 85 -86 25 -159 46 -162 46 -3 0 -12 -7 -21
-15 -13 -13 -15 -13 -21 4 -7 22 -6 22 -125 50 -151 35 -247 46 -264 31 -11
-9 -16 -9 -16 -1 0 20 -42 31 -205 50 -137 17 -163 18 -181 6 -18 -12 -23 -11
-36 1 -27 27 -414 41 -671 25z m243 -2721 l0 -1950 -30 0 c-16 0 -30 3 -30 6
0 3 -43 222 -96 487 -139 704 -383 1937 -544 2754 -50 252 -96 482 -102 511
-6 28 -9 55 -5 58 26 26 486 80 700 83 l107 1 0 -1950z m380 1935 c328 -29
587 -77 875 -162 66 -19 130 -37 143 -40 26 -6 27 -11 7 -60 -8 -21 -51 -145
-95 -275 -100 -298 -179 -530 -470 -1383 -127 -374 -267 -785 -311 -912 -376
-1107 -363 -1069 -379 -1064 -8 2 -36 6 -62 9 l-48 5 0 1948 0 1949 88 0 c48
0 161 -7 252 -15z m-1173 -400 c35 -176 104 -522 153 -770 119 -601 396 -2005
471 -2385 33 -168 62 -312 65 -321 3 -12 -10 -21 -53 -37 -32 -12 -61 -18 -65
-14 -13 13 -1938 3352 -1938 3362 0 13 400 211 528 261 219 85 422 149 677
212 105 27 91 54 162 -308z m2408 118 c66 -24 225 -96 354 -159 186 -92 232
-119 228 -132 -2 -9 -439 -768 -970 -1687 -871 -1507 -967 -1670 -988 -1667
-12 1 -25 4 -27 7 -5 5 33 117 368 1100 127 374 267 784 310 910 198 583 543
1595 558 1638 12 35 21 46 32 41 8 -3 69 -26 135 -51z m-2830 -2017 l958
-1660 -22 -17 c-22 -18 -24 -16 -1288 1429 -696 796 -1273 1455 -1281 1465
-14 15 -13 19 4 38 49 56 330 263 518 383 l120 77 17 -28 c9 -15 448 -775 974
-1687z m3630 1606 c175 -114 364 -257 515 -389 139 -122 393 -379 388 -392 -4
-12 -2917 -2561 -2926 -2561 -4 1 -27 18 -50 39 l-44 38 973 1686 c909 1574
975 1685 994 1675 11 -6 79 -49 150 -96z m-4031 -1865 c702 -802 1276 -1461
1276 -1465 -1 -4 -18 -27 -39 -51 l-38 -43 -1659 958 c-913 526 -1671 965
-1686 974 l-27 16 88 140 c114 178 269 385 408 544 122 139 379 393 392 388 5
-2 583 -659 1285 -1461z m5044 962 c86 -103 242 -318 329 -456 l73 -116 -28
-17 c-15 -9 -774 -448 -1686 -975 l-1660 -958 -17 22 c-18 22 -15 25 1444
1302 804 703 1466 1278 1472 1276 5 -2 38 -37 73 -78z m-5543 -1592 c1507
-870 1670 -967 1667 -988 -1 -12 -4 -25 -7 -27 -5 -5 -166 49 -1365 458 -245
83 -548 187 -675 230 -126 43 -324 110 -440 150 -115 39 -313 107 -440 150
-126 43 -338 115 -470 160 -132 45 -254 86 -272 91 l-32 10 19 52 c52 149 111
286 206 477 83 167 109 211 122 207 9 -2 769 -439 1687 -970z m6078 766 c104
-209 157 -334 227 -538 76 -219 159 -541 144 -555 -5 -4 -106 -26 -224 -49
-118 -23 -440 -86 -715 -141 -620 -123 -2010 -397 -2485 -491 -195 -39 -362
-72 -371 -75 -12 -3 -22 10 -38 53 l-21 58 22 15 c51 35 3334 1929 3345 1929
7 1 59 -92 116 -206z m-7855 -664 c127 -44 337 -115 465 -158 127 -44 338
-115 467 -159 129 -44 435 -148 680 -232 245 -84 549 -187 675 -230 1178 -401
1130 -384 1126 -400 -2 -8 -6 -36 -9 -62 l-5 -48 -1948 0 -1949 0 0 88 c0 89
21 342 40 487 26 199 76 435 137 640 19 66 37 130 40 143 4 18 10 21 27 16 11
-4 126 -42 254 -85z m8246 -496 c29 -99 76 -535 76 -705 l0 -88 -1950 0 -1950
0 0 30 c0 17 2 30 5 30 3 0 61 11 128 24 67 14 511 102 987 196 1490 295 1773
351 2220 441 239 48 445 87 457 88 13 1 24 -6 27 -16z m-4844 -863 c0 -16 -2
-30 -3 -30 -4 0 -206 -40 -812 -160 -247 -49 -839 -166 -1315 -260 -476 -94
-1048 -207 -1273 -252 -224 -44 -410 -78 -413 -75 -26 25 -84 524 -84 720 l0
87 1950 0 1950 0 0 -30z m4920 -57 c0 -94 -22 -369 -40 -493 -31 -218 -77
-432 -136 -633 -20 -67 -38 -132 -41 -145 -4 -18 -10 -21 -27 -16 -24 7 -367
124 -721 244 -129 44 -340 116 -467 159 -374 127 -696 237 -943 321 -126 43
-324 111 -440 150 -329 112 -661 226 -889 302 l-208 71 6 36 c3 20 6 48 6 64
l0 27 1950 0 1950 0 0 -87z m-4892 -70 c12 -32 18 -61 14 -65 -12 -12 -3336
-1930 -3354 -1935 -13 -4 -39 40 -122 207 -105 212 -155 329 -226 535 -77 222
-159 540 -144 555 5 4 106 26 224 49 118 23 418 82 665 131 248 49 839 166
1315 260 476 94 1029 204 1230 244 201 41 368 74 371 75 3 1 16 -25 27 -56z
m1412 -163 c228 -78 519 -177 645 -220 127 -43 336 -114 465 -158 129 -44 343
-117 475 -162 537 -183 720 -245 1145 -390 245 -84 460 -156 478 -162 26 -7
32 -13 27 -26 -4 -9 -30 -78 -58 -152 -55 -146 -262 -570 -277 -570 -10 0
-3349 1925 -3363 1940 -14 13 13 53 31 47 10 -3 204 -69 432 -147z m-1346 39
c14 -21 -33 -63 -1432 -1287 -796 -696 -1455 -1272 -1464 -1280 -16 -14 -20
-13 -39 4 -62 55 -338 437 -437 604 l-21 35 1682 972 c925 535 1685 972 1689
972 4 1 14 -9 22 -20z m2514 -935 c911 -526 1669 -964 1685 -973 l27 -17 -72
-115 c-91 -144 -237 -345 -352 -486 -101 -122 -450 -477 -464 -472 -9 4 -2542
2895 -2556 2918 -6 9 60 101 72 101 2 0 749 -430 1660 -956z m-2419 837 l43
-38 -958 -1659 c-526 -913 -965 -1671 -974 -1687 l-17 -27 -119 76 c-215 137
-394 272 -579 434 -127 113 -378 367 -373 379 4 11 2919 2561 2927 2561 3 -1
26 -18 50 -39z m3198 -2936 c-6 -17 -144 -129 -285 -232 -123 -89 -363 -246
-368 -240 -1 1 -439 760 -974 1686 l-973 1685 23 18 22 18 1279 -1462 c704
-805 1278 -1467 1276 -1473z m-3083 2862 c19 -14 46 71 -298 -939 -86 -252
-226 -664 -312 -915 -248 -730 -303 -891 -469 -1378 -86 -252 -157 -460 -158
-461 -1 -2 -67 22 -147 52 -154 58 -590 268 -590 284 0 7 1842 3206 1922 3338
22 36 27 38 52 19z m1414 -1663 c530 -918 967 -1677 969 -1686 4 -13 -40 -39
-207 -122 -213 -106 -333 -157 -535 -226 -219 -76 -541 -159 -555 -144 -4 5
-22 83 -39 174 -17 91 -72 368 -121 615 -91 458 -366 1851 -511 2585 -44 223
-82 412 -85 421 -3 12 9 22 48 36 29 12 57 20 62 19 5 -1 444 -753 974 -1672z
m-1262 1626 l34 0 0 -1950 0 -1950 -87 0 c-93 0 -368 22 -493 40 -212 30 -435
78 -635 137 -66 19 -130 37 -143 40 -18 4 -21 10 -16 27 13 42 190 562 554
1631 127 374 267 784 310 910 43 127 115 338 160 470 45 132 113 331 150 443
38 111 72 207 75 212 4 6 15 6 31 0 14 -6 41 -10 60 -10z m134 -3 c0 -2 15
-82 34 -178 238 -1200 493 -2489 637 -3217 45 -227 79 -415 76 -418 -25 -26
-524 -84 -719 -84 l-88 0 0 1950 0 1950 30 0 c17 0 30 -2 30 -3z"/>
</g>
</svg>
